<svg xmlns="http://www.w3.org/2000/svg"
	xmlns:xlink="http://www.w3.org/1999/xlink"
	width="100%" height="100%" 
>
<script>
<![CDATA[
var xmlns="http://www.w3.org/2000/svg"


//]]>
</script>


<rect x="0" y="0" width="100%" height="100%" fill="white"/>

<text x="10%" y="40" font-size="24" fill="red">
A. Constant Speed: keySpline 0 0 1 1</text> 
<circle cx="10%" cy="80" r="20" fill="red">
	<animate attributeName="cx" dur="6s" values="10%;90%;10%" 
	keyTimes="0;0.5; 1"
	calcMode="spline" keySplines="0 0 1 1; 0 0 1 1" 	repeatCount="indefinite" />
</circle>
<line x1="10%" y1="100" x2="90%" y2="100" stroke="gray" stroke-width="1"/>

<text x="10%" y="140" font-size="24" fill="green">
B. Quick Start: keySpline 0 0.5 0.5 1 </text> 
<circle cx="10%" cy="180" r="20" fill="green">
	<animate attributeName="cx" dur="6s" values="10%;90%;10%" 	keyTimes="0;0.5; 1"
	 calcMode="spline" keySplines="0 0.5 0.5 1; 0 0 1 1"  repeatCount="indefinite" />
</circle>
<line x1="10%" y1="200" x2="90%" y2="200" stroke="black" stroke-width="1"/>

<text x="10%" y="240" font-size="24" fill="blue">
C. Slow Start: keySpline 0.5 0 1 0.5 </text>
<circle cx="10%" cy="280" r="20" fill="blue">
	<animate attributeName="cx" dur="6s" values="10%;90%;10%" 	keyTimes="0;0.5; 1"
	 calcMode="spline" keySplines="0.5 0 1 0.5; 0 0 1 1"  repeatCount="indefinite" />
</circle>
<line x1="10%" y1="300" x2="90%" y2="300" stroke="black" stroke-width="1"/>


<text x="180" y="430" font-size="24" fill="red">A</text> 
<rect x="150" y="450" height="100" width="100"
fill="none" stroke="gray" stroke-width="1" />
<line x1="150" y1="550" x2="250" y2="450" 
stroke="black" stroke-width="2" />
<circle cx="150" cy="550" r="5" 
fill="red" />
<circle cx="250" cy="450" r="5" 
fill="red" />

<text x="380" y="430" font-size="24" fill="green">B</text> 
<rect x="350" y="450" height="100" width="100"
fill="none" stroke="gray" stroke-width="1" />
<path d="M 350 550 C 350 500 400 450 450 450" 
fill="none" stroke="black" stroke-width="2" />
<circle cx="350" cy="500" r="5" 
fill="green" />
<line x1="350" y1="550" x2="350" y2="500" 
stroke="green" stroke-width="3" />
<circle cx="400" cy="450" r="5" 
fill="green" />
<line x1="400" y1="450" x2="450" y2="450" 
stroke="green" stroke-width="3" />

<text x="580" y="430" font-size="24" fill="blue">C</text> <rect x="550" y="450" height="100" width="100"
fill="none" stroke="gray" stroke-width="1" />
<path d="M 550 550 C 600 550 650 500 650 450" 
fill="none" stroke="black" stroke-width="2" />
<circle cx="600" cy="550" r="5" 
fill="blue" />
<line x1="550" y1="550" x2="600" y2="550" 
stroke="blue" stroke-width="3" />
<circle cx="650" cy="500" r="5" 
fill="blue" />
<line x1="650" y1="500" x2="650" y2="450" 
stroke="blue" stroke-width="3" />

</svg>
