<?xml version="1.0" encoding="UTF-8" standalone="no"?>
<!-- Created with Inkscape (http://www.inkscape.org/) -->
<svg
   xmlns:dc="http://purl.org/dc/elements/1.1/"
   xmlns:cc="http://creativecommons.org/ns#"
   xmlns:rdf="http://www.w3.org/1999/02/22-rdf-syntax-ns#"
   xmlns:svg="http://www.w3.org/2000/svg"
   xmlns="http://www.w3.org/2000/svg"
   xmlns:sodipodi="http://sodipodi.sourceforge.net/DTD/sodipodi-0.dtd"
   xmlns:inkscape="http://www.inkscape.org/namespaces/inkscape"
   width="744.09448819"
   height="1052.3622047"
   id="svg2"
   sodipodi:version="0.32"
   inkscape:version="0.46"
   sodipodi:docname="Shark.svg"
   inkscape:output_extension="org.inkscape.output.svg.inkscape">
  <defs
     id="defs4">
    <inkscape:perspective
       sodipodi:type="inkscape:persp3d"
       inkscape:vp_x="0 : 526.18109 : 1"
       inkscape:vp_y="0 : 1000 : 0"
       inkscape:vp_z="744.09448 : 526.18109 : 1"
       inkscape:persp3d-origin="372.04724 : 350.78739 : 1"
       id="perspective10" />
    <inkscape:perspective
       id="perspective2600"
       inkscape:persp3d-origin="372.04724 : 350.78739 : 1"
       inkscape:vp_z="744.09448 : 526.18109 : 1"
       inkscape:vp_y="0 : 1000 : 0"
       inkscape:vp_x="0 : 526.18109 : 1"
       sodipodi:type="inkscape:persp3d" />
    <inkscape:perspective
       id="perspective2746"
       inkscape:persp3d-origin="372.04724 : 350.78739 : 1"
       inkscape:vp_z="744.09448 : 526.18109 : 1"
       inkscape:vp_y="0 : 1000 : 0"
       inkscape:vp_x="0 : 526.18109 : 1"
       sodipodi:type="inkscape:persp3d" />
    <inkscape:perspective
       id="perspective3170"
       inkscape:persp3d-origin="372.04724 : 350.78739 : 1"
       inkscape:vp_z="744.09448 : 526.18109 : 1"
       inkscape:vp_y="0 : 1000 : 0"
       inkscape:vp_x="0 : 526.18109 : 1"
       sodipodi:type="inkscape:persp3d" />
    <inkscape:perspective
       id="perspective3522"
       inkscape:persp3d-origin="372.04724 : 350.78739 : 1"
       inkscape:vp_z="744.09448 : 526.18109 : 1"
       inkscape:vp_y="0 : 1000 : 0"
       inkscape:vp_x="0 : 526.18109 : 1"
       sodipodi:type="inkscape:persp3d" />
    <inkscape:perspective
       id="perspective3827"
       inkscape:persp3d-origin="372.04724 : 350.78739 : 1"
       inkscape:vp_z="744.09448 : 526.18109 : 1"
       inkscape:vp_y="0 : 1000 : 0"
       inkscape:vp_x="0 : 526.18109 : 1"
       sodipodi:type="inkscape:persp3d" />
    <inkscape:perspective
       id="perspective3933"
       inkscape:persp3d-origin="372.04724 : 350.78739 : 1"
       inkscape:vp_z="744.09448 : 526.18109 : 1"
       inkscape:vp_y="0 : 1000 : 0"
       inkscape:vp_x="0 : 526.18109 : 1"
       sodipodi:type="inkscape:persp3d" />
    <inkscape:perspective
       id="perspective4084"
       inkscape:persp3d-origin="372.04724 : 350.78739 : 1"
       inkscape:vp_z="744.09448 : 526.18109 : 1"
       inkscape:vp_y="0 : 1000 : 0"
       inkscape:vp_x="0 : 526.18109 : 1"
       sodipodi:type="inkscape:persp3d" />
    <inkscape:perspective
       id="perspective4515"
       inkscape:persp3d-origin="372.04724 : 350.78739 : 1"
       inkscape:vp_z="744.09448 : 526.18109 : 1"
       inkscape:vp_y="0 : 1000 : 0"
       inkscape:vp_x="0 : 526.18109 : 1"
       sodipodi:type="inkscape:persp3d" />
    <inkscape:perspective
       id="perspective5166"
       inkscape:persp3d-origin="372.04724 : 350.78739 : 1"
       inkscape:vp_z="744.09448 : 526.18109 : 1"
       inkscape:vp_y="0 : 1000 : 0"
       inkscape:vp_x="0 : 526.18109 : 1"
       sodipodi:type="inkscape:persp3d" />
  </defs>
  <sodipodi:namedview
     id="base"
     pagecolor="#ffffff"
     bordercolor="#666666"
     borderopacity="1.0"
     gridtolerance="10000"
     guidetolerance="10"
     objecttolerance="10"
     inkscape:pageopacity="0.0"
     inkscape:pageshadow="2"
     inkscape:zoom="0.66481571"
     inkscape:cx="518.256"
     inkscape:cy="609.62104"
     inkscape:document-units="px"
     inkscape:current-layer="layer1"
     showgrid="false"
     inkscape:window-width="1280"
     inkscape:window-height="1002"
     inkscape:window-x="1148"
     inkscape:window-y="-4" />
  <metadata
     id="metadata7">
    <rdf:RDF>
      <cc:Work
         rdf:about="">
        <dc:format>image/svg+xml</dc:format>
        <dc:type
           rdf:resource="http://purl.org/dc/dcmitype/StillImage" />
      </cc:Work>
    </rdf:RDF>
  </metadata>
  <g
     inkscape:label="Layer 1"
     inkscape:groupmode="layer"
     id="layer1">
    <path
       style="fill:#000000"
       d="M 163.96875,188.46875 C 164.06528,191.553 166.77974,201.07916 168.5,204.375 C 170.08865,207.4187 172.37676,212.92286 174.96875,219.875 C 175.37886,220.975 175.88812,222.775 176.09375,223.875 C 176.29938,224.975 177.11086,228.575 177.90625,231.875 C 182.8396,252.34316 182.92614,254.24242 179.28125,261.53125 C 176.47146,267.1501 157.49745,285.70142 154.28125,285.96875 C 133.64905,288.78406 118.01918,296.06247 100.09375,307.15625 C 92.936728,311.87131 78.463012,325.47234 72.09375,333.46875 C 68.56361,337.90074 67.443892,341.65764 69.3125,342.8125 C 69.80287,343.11557 75.273938,341.54404 81.46875,339.34375 C 94.27768,334.79421 93.743717,334.93221 110.125,332.46875 C 123.15639,330.50904 127.04427,330.37505 126.6875,331.90625 C 126.1037,334.41192 123.29244,342.06863 122.34375,343.71875 C 120.0603,347.6905 119.20338,373.48026 120.875,387.875 C 131.24444,453.2415 169.14973,474.55917 230.9375,499.375 C 253.89815,508.51594 275.48505,516.24256 296.8125,520 C 307.30896,526.23237 311.90527,536.84735 322.34375,543.34375 C 325.61031,545.01025 327.95206,545.38706 333.125,545.15625 L 339.71875,544.875 L 333.78125,537.375 C 330.02937,532.636 327.85236,528.95473 327.875,527.375 L 327.9375,524.875 L 349.71875,524.84375 C 378.64443,524.79185 385.61556,525.40341 405.9375,529.9375 C 416.11536,532.96119 426.25025,536.64236 435.375,542.15625 C 468.39945,582.27553 538.39259,581.7086 592.3125,549.0625 C 595.35149,547.1214 597.11652,545.43458 596.375,545.1875 C 595.15622,544.7812 589.10804,546.09821 581.9375,548.3125 C 569.99793,551.3019 557.8499,552.4351 545.5625,552.6875 C 535.35255,553.98448 525.66848,551.55028 515.78125,549.90625 C 510.15729,549.13675 494.80956,542.645 487.9375,538.125 C 484.0875,535.5927 478.575,531.26778 475.6875,528.53125 C 467.41081,520.68755 468.11008,518.98015 484.9375,505.78125 C 509.21594,486.73815 516.01272,481.97562 530.4375,473.90625 C 541.72532,467.59165 547.47002,462.5465 547.34375,459.0625 C 547.30033,457.86417 547.084,457.33021 546.84375,457.90625 C 526.00357,458.2618 505.22472,466.62115 485.9375,474.3125 C 458.927,483.96069 417.04604,510.26396 388,501.375 C 385.84632,500.3213 383.70881,499.68514 383.25,499.96875 C 382.79118,500.25225 382.4375,500.08034 382.4375,499.59375 C 382.4375,498.00265 386.85819,494.49704 391.4375,492.46875 C 393.90565,491.37555 396.98981,489.51789 398.28125,488.3125 C 401.57526,485.2381 399.55625,484.23265 391.4375,484.90625 C 384.30576,485.49805 379.75223,486.9308 368.4375,492.1875 C 364.3125,494.104 359.5875,495.63725 357.9375,495.59375 C 326.48946,494.76515 311.15808,494.06016 302.78125,493.03125 C 294.8698,492.05965 272.3277,479.31002 261.65625,469.78125 C 255.85507,464.60125 251.8044,458.24722 248.96875,449.875 C 248.12946,447.82439 247.83777,445.6348 247.4375,443.46875 L 246.625,439.0625 L 253.65625,432.21875 C 261.61902,423.9199 271.69347,419.58616 282.40625,416.4375 C 287.54317,414.88641 292.635,415.19052 295.0625,417.21875 C 299.15012,420.63404 302.37183,429.62284 304.8125,444.375 C 305.97106,451.37772 310.70807,461.82795 312.40625,461.15625 C 313.77187,460.61615 323.9947,447.97834 328.40625,441.375 C 339.50957,424.75519 351.37642,411.51133 358.46875,407.84375 C 360.59375,406.74487 364.79702,405.97059 369.875,405.75 C 374.29803,405.55786 377.9375,405.34985 377.9375,405.28125 C 377.9375,405.21266 381.3125,405.03134 385.4375,404.875 C 425.74691,404.50372 464.55741,400.95451 501.59375,383.84375 C 508.52728,380.4488 537.28358,367.37499 537.8125,367.375 C 538.79973,367.375 593.78556,339.8796 601.4375,335.5625 C 626.296,321.75886 665.34436,296.00686 684.8125,272.15625 C 691.45953,263.30704 693.4375,257.85118 693.4375,248.21875 C 693.4375,241.58119 693.30782,241.25878 689.53125,237.59375 C 687.39011,235.51584 684.80261,233.73619 683.78125,233.65625 C 682.2605,233.53723 673.84208,231.89317 658.9375,228.78125 C 631.55258,223.35531 604.18255,217.56891 576.9375,209.78125 C 552.25421,202.31145 527.09836,196.83859 501.65625,192.75 C 489.71046,190.87059 473.81417,189.72341 462.78125,189.9375 C 449.427,190.19664 436.21967,191.0972 433.34375,191.9375 C 432.47075,192.19257 430.22074,191.35987 428.34375,190.09375 C 421.62242,185.55994 417.1297,184.32743 406.96875,184.1875 C 402.08213,183.86254 398.54044,185.28963 395.34375,188.75 C 393.65827,190.89274 389.91813,192.09693 382.4375,192.90625 C 367.59258,196.48945 352.39151,198.1731 337.4375,201.21875 C 316.83411,198.57479 297.38816,196.18536 276.4375,195.75 C 213.64951,194.64089 221.04702,195.31991 202.4375,188.8125 C 188.68065,184.00198 185.76027,183.357 177.40625,183.15625 C 172.86285,183.3105 166.14093,183.85573 163.96875,188.46875 z M 434.8125,307.03125 C 438.11304,307.06171 439.94901,307.20604 439.65625,307.46875 C 439.25876,307.82544 435.21927,309.32594 430.6875,310.8125 C 426.15573,312.29906 422.18818,313.93076 421.875,314.4375 C 420.57315,316.54393 419.4375,315.11639 419.4375,311.375 C 419.4375,308.2578 419.82372,307.36498 421.1875,307.3125 C 426.75081,307.09842 431.51196,307.00079 434.8125,307.03125 z M 406.9375,307.34375 L 396.4375,312.71875 C 390.6625,315.67232 384.80819,318.4416 383.4375,318.875 C 380.96575,319.89251 382.243,316.59581 381.6875,314.125 C 382.06352,310.5733 387.39124,308.49095 397.78125,307.875 L 406.9375,307.34375 z M 473.78125,308.71875 C 475.41641,308.78754 475.35122,309.01135 473.28125,310.6875 C 470.43378,312.99324 462.51125,317.07454 457,319.0625 C 449.27142,321.85025 449.48855,321.99198 451.21875,315.03125 C 452.06185,311.63937 453.24726,308.55292 453.84375,308.15625 C 460.4146,307.28112 467.17853,308.35637 473.78125,308.71875 z M 487.78125,310.9375 C 489.32863,310.90601 491.62746,311.49365 495.1875,312.46875 C 497.525,313.10899 499.4375,313.917 499.4375,314.28125 C 499.4375,314.6455 496.4,316.69869 492.6875,318.84375 C 488.975,320.98882 484.84088,323.42026 483.53125,324.25 C 481.30127,325.66282 481.18341,325.6396 481.71875,323.8125 C 482.03316,322.73948 482.83225,319.84999 483.46875,317.375 C 484.65323,312.7693 485.20228,310.98999 487.78125,310.9375 z M 359.65625,312.78125 C 361.77297,312.71708 363.4375,312.79212 363.4375,313.03125 C 363.4375,313.21047 360.2875,314.93616 356.4375,316.875 L 349.4375,320.40625 L 349.4375,317.4375 C 349.4375,315.81304 349.95557,314.17568 350.59375,313.78125 C 351.30614,313.34096 356.12839,312.8882 359.65625,312.78125 z M 342.96875,315.1875 C 344.4102,315.1987 344.67952,316.53941 344.25,319.46875 C 343.85454,322.1659 342.92093,322.45879 338.71875,321.25 C 333.97578,319.88563 334.0321,318.94483 339,316.53125 C 340.82254,315.6458 342.10388,315.18078 342.96875,315.1875 z M 438.6875,316.375 C 438.8898,316.375 438.81197,318.28749 438.5,320.625 C 438.01621,324.24983 437.53916,324.90387 435.375,325.15625 C 431.19446,324.91108 426.75409,324.07617 422.65625,322.9375 C 422.41055,322.69317 437.84491,316.37499 438.6875,316.375 z M 508.34375,317.4375 C 509.09582,317.35065 510.39893,317.83804 512.34375,318.84375 C 515.11558,320.27712 520.4989,325.85526 520.375,327.1875 C 520.34056,327.5578 517.30307,329.32119 513.625,331.09375 C 504.26797,335.60311 501.6217,336.47013 500.90625,335.3125 C 500.57672,334.7793 501.01493,333.64131 501.875,332.78125 C 502.73507,331.92118 503.4375,330.69474 503.4375,330.03125 C 506.5677,324.47526 508.10707,324.01953 507.71875,319.375 C 507.40645,318.18078 507.59168,317.52435 508.34375,317.4375 z M 404.78125,317.9375 C 405.92551,317.8871 406.4375,318.67441 406.4375,320.34375 C 406.4375,321.92741 405.47418,322.24509 399.90625,322.53125 C 394.49145,322.80956 393.67006,322.66243 395.09375,321.625 C 396.0372,320.9375 397.343,320.37499 398,320.375 C 398.65701,320.375 400.46406,319.70309 402,318.90625 C 403.19313,318.28725 404.0947,317.96774 404.78125,317.9375 z M 370.0625,319.25 C 372.2975,319.15118 373.4375,320.36928 373.4375,322.90625 C 373.4375,325.47769 373.20217,325.79592 372.125,324.71875 C 371.7702,324.36394 369.08686,323.95229 366.1875,323.8125 C 363.28814,323.67271 360.7125,323.47377 360.4375,323.375 C 360.1625,323.27622 362.13256,322.1419 364.84375,320.84375 C 366.96269,319.82918 368.7215,319.30929 370.0625,319.25 z M 465.65625,325.75 C 465.92792,325.7314 466.10196,325.7308 466.125,325.75 C 466.22996,325.83748 465.44682,327.83205 464.40625,330.15625 C 461.19568,338.62301 457.52801,333.54555 452.45003,331.87918 C 450.95946,331.87918 445.75355,328.43847 447.1875,328.28125 C 447.6,328.23602 449.2875,327.98038 450.9375,327.71875 C 456.32411,326.86464 463.75456,325.88017 465.65625,325.75 z M 486.4375,335.09375 C 486.4375,335.99532 481.33063,342.60476 478.6875,345.125 C 476.20908,347.48819 474.4375,348.01518 474.4375,346.40625 C 474.4375,345.88125 473.25501,344.28625 471.8125,342.84375 C 468.99871,340.02996 469.40991,338.78806 473.4375,337.96875 C 476.94054,337.25616 479.42701,336.63974 483.1875,335.5 C 484.23071,335.01693 485.45577,335.00767 486.4375,335.09375 z M 522.65625,338 C 525.02379,339.46322 521.95027,348.1957 518.125,350.875 C 516.68795,351.88155 513.62718,352.36496 508.9375,352.34375 C 501.40725,352.30967 501.48022,352.51362 507.6875,348 C 508.91622,347.10653 512.61722,344.40001 515.90625,341.96875 C 518.03595,340.50759 520.16323,338.69031 522.65625,338 z M 493.4375,347.875 C 493.4375,348.81013 489.19077,352.88694 485.78125,355.21875 C 481.95858,357.83311 480.86848,357.90573 479.84375,355.625 C 477.89215,351.28133 478.49635,350.43181 483.65625,350.28125 C 486.08403,349.14082 488.72813,349.11613 491.34375,348.40625 C 491.94542,347.83855 492.86902,347.92027 493.4375,347.875 z M 495.1875,360.9375 C 495.875,361.04266 497.225,361.19272 498.1875,361.28125 C 500.95149,361.53548 494.89014,366.01229 489.46875,367.71875 C 479.17091,370.96016 478.03998,370.79304 480.9375,366.65625 C 482.16362,364.90572 484.82147,363.72336 489.4375,362.875 C 491.34662,362.02477 493.09574,361.18495 495.1875,360.9375 z"
       id="path5224"
       sodipodi:nodetypes="csssssccsssssscccccccccccccscccssssscccssssssssscccccsssssssccsccssscccssscccccscccsssssccccccccssscccssssssccscccsccsssccsccccsssssccccsssssccsssssccsccssccsssscccssscccssccccssscc" />
    <path
       style="fill:#666666"
       d="M 175.0229,673.1885 C 173.8439,673.21201 172.88059,673.33994 172.2104,673.59475 C 170.95062,674.07371 169.47915,674.54965 168.92915,674.626 C 167.61761,674.80807 166.27525,679.80098 167.0229,681.71975 C 167.34436,682.54475 167.78265,684.34475 168.0229,685.71975 C 168.26316,687.09475 169.84979,690.85272 171.5229,694.09475 C 174.49338,699.85073 177.93703,708.55383 178.5854,711.876 C 178.88117,713.39146 179.30465,713.4147 183.2729,712.0635 C 185.6633,711.24958 188.34254,710.84348 189.24165,711.1885 C 190.48751,711.66658 189.75113,712.53955 186.1479,714.78225 C 183.54752,716.40077 180.98077,717.71975 180.42915,717.71975 C 179.30907,717.71975 181.74761,726.52989 182.6479,728.876 C 182.13083,730.48321 181.5627,733.14136 181.7729,735.3135 C 181.95358,736.4241 182.10263,743.99159 182.2104,749.59475 C 180.54675,750.94195 178.71946,752.51488 176.05415,754.90725 C 166.92261,763.10369 162.42915,767.43518 162.42915,768.001 C 162.42915,768.95407 174.18238,767.75542 177.17915,766.501 C 178.68017,765.87268 180.88354,765.23778 182.0854,765.09475 C 183.28727,764.95174 185.98727,764.36487 188.0854,763.78225 C 195.90965,761.60955 198.12523,763.14045 191.42915,766.09475 C 184.13335,769.31364 168.40171,773.2628 158.92915,774.251 C 155.42108,774.61696 151.31976,775.26691 146.42915,776.251 C 127.67759,778.93123 111.79082,789.61686 95.429148,798.751 C 89.386235,802.24978 80.525648,810.22229 76.866648,815.46975 C 74.956187,818.20957 75.067528,818.20263 81.366648,815.71975 C 84.13784,814.62745 87.667478,813.52802 89.179148,813.251 C 90.690814,812.97397 93.054148,812.49831 94.429148,812.21975 C 99.539168,811.18452 103.02343,810.60485 106.42915,810.21975 C 108.35415,810.00209 113.75415,809.39637 118.42915,808.876 C 123.10415,808.35563 133.83423,807.85402 142.2729,807.751 C 150.71159,807.64798 159.71158,807.2597 162.2729,806.876 C 164.83424,806.49229 168.50415,806.46096 170.42915,806.8135 C 173.63311,807.40025 173.83718,807.62275 171.67915,808.15725 C 171.26665,808.25941 169.15859,809.10065 167.0229,810.03225 C 164.88722,810.96386 162.0052,811.93671 160.61665,812.1885 C 153.34019,813.50796 148.59088,813.94232 140.4604,814.09475 C 132.51367,814.24375 131.21687,814.53741 128.9604,816.65725 C 127.56084,817.97206 126.60937,819.24373 126.8354,819.46975 C 121.49327,834.62685 120.77053,849.91731 121.8354,866.1885 C 124.56572,888.91601 131.7886,907.063 145.2729,926.21975 C 154.98925,941.86828 168.69143,948.76198 182.11665,958.3135 C 184.8397,960.97049 232.90651,980.61663 251.42915,986.65725 C 267.22724,993.41445 283.53267,997.93831 300.1479,1001.001 C 302.98541,1005.268 308.49823,1011.7652 311.11665,1015.126 C 314.97653,1020.0803 322.17635,1024.5775 326.36665,1024.6573 C 328.68567,1024.7014 328.58471,1024.4935 324.74165,1020.6885 C 321.67575,1017.653 320.80165,1016.0936 321.1479,1014.2823 C 321.7345,1011.2137 318.65613,1008.4136 312.17915,1007.5948 C 307.90898,1003.1203 305.6283,1001.8113 310.42915,1002.7198 C 312.77976,1003.7065 331.37146,1004.712 357.36665,1005.251 C 373.00968,1005.5753 386.09075,1006.0106 386.42915,1006.2198 C 386.76754,1006.4289 389.24182,1006.8119 391.9604,1007.0948 C 402.24864,1008.1653 414.93828,1012.373 427.92915,1019.0323 C 435.07915,1022.6974 440.49368,1025.7177 439.99165,1025.7198 C 439.4896,1025.7218 441.73961,1027.6196 444.99165,1029.9385 C 448.24367,1032.2574 451.82915,1034.9981 452.92915,1036.0323 C 461.90391,1043.5374 468.65412,1048.9394 479.42915,1050.7198 C 486.65193,1051.6991 530.36257,1051.0873 536.92915,1049.9073 C 541.47957,1049.1203 545.96457,1048.0189 550.5229,1047.2823 C 551.95382,1047.0771 555.55385,1045.9144 558.5229,1044.7198 C 564.80206,1042.1932 572.86,1038.3277 569.92915,1039.251 C 559.96632,1042.3894 538.6501,1043.2275 520.92915,1041.1573 C 515.03075,1040.4682 501.3877,1036.0871 492.92915,1032.1573 C 480.77239,1026.5093 462.42915,1011.2875 462.42915,1006.8448 C 462.42915,1004.045 465.00308,997.83652 467.2104,995.34475 C 468.15191,994.28189 477.02915,987.42593 486.92915,980.09475 C 496.82915,972.76358 505.36286,966.37929 505.92915,965.90725 C 509.47138,962.95451 531.94653,949.71975 532.49165,949.71975 C 533.00508,949.71975 533.42915,949.26975 533.42915,948.71975 C 498.42009,944.78822 453.37176,987.27085 394.42915,991.03225 C 390.30415,990.06609 384.45219,989.33191 381.42915,989.40725 C 376.38481,989.53296 375.66889,989.87002 372.80415,993.28225 C 369.68101,997.00225 367.42915,997.23216 367.42915,993.84475 C 367.42915,991.22743 372.4911,983.775 377.7104,978.751 C 380.2539,976.30269 382.20643,974.15327 382.0229,973.96975 C 381.35767,973.30451 369.93768,978.05153 361.5229,982.501 C 347.39166,989.97315 333.83961,993.51365 332.67915,990.03225 C 332.29623,988.88352 341.11537,985.39585 342.3979,986.1885 C 342.7982,986.43589 343.85659,986.10838 344.7729,985.4385 C 346.10319,984.46599 342.26234,984.18794 325.67915,984.126 C 299.02579,985.42904 273.5677,973.85235 254.30415,956.4385 C 251.89518,954.02813 248.64029,950.21564 247.0854,947.96975 C 243.91246,943.38673 239.46534,933.17134 239.42915,930.376 C 239.41609,929.36766 238.85226,928.74538 238.17915,928.96975 C 236.78799,929.43346 231.83219,937.4692 231.55415,939.71975 C 231.45332,940.53593 231.27623,942.40914 231.1479,943.876 C 230.83008,947.50867 230.03382,948.05695 228.11665,945.9385 C 225.63074,943.19159 228.08025,934.15233 233.42915,926.376 C 238.06707,919.63333 248.61532,909.8553 254.92915,906.40725 C 257.12915,905.20579 259.15415,903.91418 259.42915,903.5635 C 279.31289,890.63887 301.85582,891.76493 323.92915,887.8135 C 327.9219,887.80901 331.85224,887.69236 335.7729,887.53225 C 326.70956,891.11547 317.59954,894.90366 311.42915,895.626 C 302.26999,896.67059 299.37635,897.33505 297.99165,898.71975 C 297.23826,899.47315 297.31035,900.03849 298.2104,900.59475 C 306.27061,911.41473 303.3759,925.59745 308.6479,937.4385 L 309.74165,939.6885 L 311.05415,937.4385 C 314.36115,931.13174 318.22898,925.12887 322.67915,919.5635 C 327.57686,911.26165 344.55964,896.22907 354.0229,886.40725 C 369.23714,885.20859 384.29838,883.62118 399.92915,883.126 C 410.92915,882.85583 422.20066,882.17119 424.99165,881.626 C 427.78262,881.08081 432.05763,880.41776 434.49165,880.126 C 445.14764,878.84867 457.12058,876.79439 459.67915,875.8135 C 461.20601,875.22815 463.45601,874.53932 464.67915,874.28225 C 493.30845,866.25629 520.2852,855.19226 546.92915,841.53225 C 548.02915,840.88621 554.10415,837.64862 560.42915,834.34475 C 570.70043,828.97953 582.87029,821.80592 621.86665,798.21975 C 628.21546,794.37981 633.42915,790.78689 633.42915,790.21975 C 633.42915,789.65261 634.26228,788.73142 635.30415,788.1885 C 641.23251,785.09919 666.01686,766.11346 672.4604,759.71975 C 681.19046,751.05724 684.9971,744.12225 685.92915,735.15725 C 686.53027,729.37508 686.42666,728.92418 683.49165,725.78225 C 681.66204,723.82363 679.83269,722.72877 678.9604,723.0635 C 678.15347,723.37316 677.18365,723.15823 676.8354,722.59475 C 676.48718,722.03128 675.57352,721.83077 674.80415,722.126 C 674.03476,722.42125 673.42915,722.28558 673.42915,721.84475 C 673.42915,721.40393 672.45187,721.13289 671.2729,721.21975 C 670.0939,721.30661 663.68143,720.07782 657.0229,718.501 C 650.36434,716.92418 644.02915,715.47812 642.92915,715.28225 C 641.82915,715.08639 637.10415,713.98113 632.42915,712.84475 C 627.75415,711.70836 619.42915,710.09497 613.92915,709.251 C 585.95877,704.73342 559.81166,693.90001 532.42915,687.21975 C 530.18228,686.58337 526.19688,685.95743 512.49165,684.1885 C 505.65036,683.30549 499.72089,682.3955 499.3354,682.15725 C 498.9499,681.919 495.77109,681.46513 492.2729,681.126 C 488.77471,680.78687 485.59305,680.32468 485.2104,680.09475 C 482.02495,678.18066 448.56684,677.98925 441.0854,679.84475 C 438.25014,680.54794 435.3258,681.01594 434.61665,680.876 C 435.36586,684.77482 440.87087,688.00714 442.0854,692.21975 C 442.08541,694.4995 441.28249,694.06904 436.92915,689.5635 C 427.81533,680.13105 416.99595,673.80068 409.7104,673.59475 C 409.02432,673.57536 408.36242,673.54947 407.7104,673.5635 C 397.93011,673.77401 392.03897,677.73483 391.5854,684.46975 C 391.29503,688.7813 390.22295,690.23223 387.99165,689.376 C 386.98797,688.99086 386.42915,687.52167 386.42915,685.3135 C 386.42915,681.42851 385.08121,680.55281 381.42915,682.001 C 380.05415,682.54623 377.57915,683.09905 375.92915,683.251 C 366.27271,684.65072 356.7762,687.11761 347.0854,688.28225 C 344.52118,688.56787 338.84132,689.63371 333.24165,690.876 C 326.73837,688.56987 287.41478,686.75927 285.42915,686.78225 C 258.34167,687.3245 249.39706,687.25096 239.92915,686.376 C 234.97915,685.91854 226.65415,685.17423 221.42915,684.71975 C 215.48784,684.71787 210.02044,682.81656 204.42915,681.21975 C 203.60415,681.04041 199.69093,679.50688 195.74165,677.8135 C 189.25569,675.03245 180.13188,673.08662 175.0229,673.1885 z M 404.11665,682.251 C 411.11604,682.94272 417.43236,687.4422 423.0854,691.3135 C 426.06293,693.54475 438.42915,708.02652 438.42915,709.28225 C 438.42915,710.03999 432.35644,705.76501 430.42915,703.65725 C 429.60415,702.75499 427.91665,701.50044 426.67915,700.84475 C 424.74522,699.82006 424.40116,699.90409 424.3354,701.4385 C 424.16763,705.35302 423.42771,707.15869 421.0229,709.5635 C 418.51406,712.07233 418.49911,712.04708 414.5854,710.28225 C 407.60127,707.13284 404.00896,697.0432 407.80415,691.251 C 409.97973,687.93065 408.12236,687.1197 404.80415,689.9385 C 392.52031,700.37357 392.09321,707.51436 403.36665,713.21975 C 406.16962,714.63831 408.54891,714.87049 416.2104,714.46975 C 421.54662,714.19063 425.94352,713.51006 426.3354,712.876 L 423.585,715.55038 C 414.68108,720.87802 414.71229,721.0615 405.0854,719.71975 C 400.21167,718.20904 395.65085,713.91044 392.86665,708.21975 C 389.85057,702.05509 390.05522,699.21463 393.8354,694.21975 C 395.08414,692.56975 396.67797,689.50791 397.36665,687.40725 C 398.56269,683.75906 400.49862,682.21008 404.11665,682.251 z M 312.0229,696.03225 C 308.93522,697.11347 299.87771,699.62439 297.42915,700.0635 C 290.15723,701.36761 275.73785,705.60744 257.42915,711.8135 C 246.15415,715.63535 236.25415,718.93724 235.42915,719.15725 C 221.10245,723.99445 207.69312,730.98148 195.42915,739.78225 C 192.37854,741.74621 189.68997,744.18996 186.7104,746.251 C 188.6936,741.53544 190.84397,736.36573 191.99165,734.251 C 194.45055,729.72019 200.58992,728.49489 201.7729,728.126 C 208.64499,724.71699 215.68076,721.3074 223.05415,719.28225 C 229.6555,716.05739 253.78003,706.6411 264.92915,702.9385 C 274.66811,698.43326 294.98779,697.80168 312.0229,696.03225 z M 233.42915,702.3135 C 233.42915,702.71803 219.87098,709.36295 206.42915,715.5635 C 201.58237,718.71398 191.27893,721.30849 186.0229,723.5635 C 188.96553,720.28489 196.77056,716.01682 198.5229,715.15725 C 209.77719,710.36262 221.41796,704.22932 233.42915,702.3135 z M 307.8354,704.71975 C 309.41403,704.71975 306.82621,707.70096 304.36665,708.71975 C 302.76998,709.3811 300.43047,710.83714 299.17915,711.9385 C 297.92784,713.03986 295.4118,715.0934 293.5854,716.501 C 289.3882,719.73575 285.72694,725.23791 281.5229,734.53225 C 277.14853,744.20318 276.59841,751.76338 279.8354,758.15725 C 282.53371,763.4871 282.37007,763.89969 279.2104,759.626 C 273.78546,752.44727 275.00747,743.79951 277.1479,735.53225 C 280.49227,726.26975 284.84036,720.60137 294.92915,712.251 C 298.42266,709.35946 306.37863,704.71975 307.8354,704.71975 z M 315.7104,713.78225 C 317.48519,713.91431 317.47156,714.66321 316.67915,715.71975 C 315.49012,715.7475 306.05958,724.94465 304.1479,727.9385 C 303.19457,729.43148 302.15902,732.30844 301.8354,734.34475 C 301.61704,737.34938 299.86134,740.14761 300.1479,743.09475 C 298.84807,744.43647 298.41273,741.20851 298.2104,739.46975 C 297.85528,734.56159 300.3766,725.97542 303.42915,721.6885 C 306.03452,718.0296 312.59405,714.15523 315.7104,713.78225 z M 269.05415,724.71975 C 269.88261,724.71975 269.31782,726.4161 267.8979,728.251 C 256.85591,742.52007 253.96764,756.40101 260.7104,762.84475 C 264.01514,766.00292 264.03278,766.47414 260.67915,765.9385 C 258.30548,765.54624 258.60354,763.26507 256.8979,762.0635 C 255.68032,761.59629 253.62922,754.70534 254.11665,752.71975 C 254.98644,740.90799 259.86283,732.24298 269.05415,724.71975 z M 250.8354,729.15725 C 251.16174,729.19184 251.43988,729.32423 251.67915,729.5635 C 252.51948,730.40385 252.00535,731.55194 249.67915,733.96975 C 242.42653,741.50801 238.40307,755.96506 241.7104,762.59475 C 243.59664,766.37581 243.44093,766.43005 240.3354,763.126 C 238.31605,760.97756 237.89807,759.42792 237.74165,753.78225 C 237.57684,747.83397 237.9485,746.14407 240.99165,740.09475 C 243.36142,735.74846 245.94527,730.77449 250.8354,729.15725 z M 418.8354,786.09475 C 441.20608,786.08467 470.11927,786.66243 476.42915,787.5635 C 500.86273,791.05272 514.63814,797.09979 520.80415,807.03225 C 526.14048,815.62822 526.98815,825.63252 523.0854,834.15725 C 521.68439,837.2175 519.87348,839.71975 519.0854,839.71975 C 518.29728,839.71974 517.07102,840.40228 516.36665,841.251 C 514.63756,843.33438 486.63873,857.29829 482.3354,858.21975 C 480.44943,858.62359 478.36665,859.38466 477.67915,859.9385 C 476.99165,860.49232 476.42915,860.7112 476.42915,860.40725 C 476.42915,860.10331 474.96665,860.28173 473.17915,860.8135 C 471.39165,861.34528 468.03118,861.99718 465.74165,862.251 C 463.45212,862.5048 459.55864,863.56584 457.0854,864.626 C 454.61214,865.68615 451.30388,866.76993 449.74165,867.03225 C 448.17944,867.29459 446.20416,867.80583 445.3354,868.15725 C 442.73849,869.20767 435.40714,869.48859 434.8354,868.5635 C 434.34638,867.77225 436.09046,867.3238 439.17915,867.4385 C 439.86665,867.46405 440.42915,867.14901 440.42915,866.71975 C 440.42915,865.98252 444.76185,864.3511 446.92915,864.28225 C 447.47915,864.26479 451.5146,862.80171 455.8979,861.001 C 460.2812,859.2003 464.37833,857.71975 465.0229,857.71975 C 465.66747,857.71974 466.46824,856.62059 466.80415,855.28225 C 467.14005,853.9439 468.30244,852.56744 469.3979,852.21975 C 473.64049,850.87321 474.33516,849.17645 472.99165,843.46975 C 471.41833,836.7869 468.79674,831.71975 466.8979,831.71975 C 466.08703,831.71974 465.42915,831.33021 465.42915,830.84475 C 465.42915,829.6593 456.10303,825.14214 446.0854,821.501 C 441.59635,819.86935 435.45415,817.63104 432.42915,816.501 C 429.40415,815.37094 425.12915,814.15015 422.92915,813.8135 C 417.59728,812.99759 398.79334,813.12912 377.8979,814.126 C 365.43995,814.72035 359.26767,814.62691 354.8979,813.71975 C 351.6134,813.03787 346.45562,812.32984 343.42915,812.15725 C 340.40269,811.98466 334.77915,810.89058 330.92915,809.71975 C 322.90985,807.28099 323.44583,807.43038 317.17915,805.751 C 308.31971,803.37679 312.98194,797.51337 324.74165,796.251 C 333.70684,795.28863 339.03127,794.6483 341.42915,794.21975 C 342.80415,793.974 345.95415,793.52908 348.42915,793.21975 C 350.90415,792.91041 354.05415,792.43686 355.42915,792.1885 C 356.80415,791.94014 359.27915,791.53593 360.92915,791.28225 C 363.55728,790.87819 366.91592,790.41578 383.42915,788.251 C 385.35415,787.99864 389.17915,787.36516 391.92915,786.8135 C 394.3464,786.32859 405.41299,786.1008 418.8354,786.09475 z"
       id="path5222"
       sodipodi:nodetypes="csssssssssscccsssssssccssssssssssssssccccccssssccssssssccccsssssssssccsssssssssccssssssssccccscccccccsssccsssssssssssssssccsssssccsssssssccccsccscccsssssssssscccsssccsscccsccccccccccsssssccscccscccsccsscccccssssscccsssssssssssssssssssssssssssssssssssssssc" />
  </g>
</svg>
